<?xml version="1.0" standalone="no"?>
<!DOCTYPE svg PUBLIC "-//W3C//DTD SVG 20010904//EN"
 "http://www.w3.org/TR/2001/REC-SVG-20010904/DTD/svg10.dtd">
<svg version="1.0" xmlns="http://www.w3.org/2000/svg"
 width="256.000000pt" height="256.000000pt" viewBox="0 0 256.000000 256.000000"
 preserveAspectRatio="xMidYMid meet">

<g transform="translate(0.000000,256.000000) scale(0.100000,-0.100000)"
fill="#000000" stroke="none">
<path d="M1021 2329 c-17 -23 -31 -49 -31 -58 1 -9 26 -33 56 -55 l56 -38 -63
-27 c-113 -46 -153 -72 -224 -145 -120 -121 -178 -262 -178 -431 0 -169 58
-309 178 -431 82 -83 169 -134 280 -165 109 -30 278 -24 377 13 190 71 334
220 390 403 29 92 30 252 4 340 -52 174 -166 310 -328 390 -95 47 -96 48 -82
71 28 42 -20 89 -66 64 -11 -6 -20 -15 -20 -20 0 -6 -12 -10 -27 -10 -15 0
-39 -11 -54 -26 -33 -31 -53 -24 -44 16 6 26 0 32 -77 85 -46 32 -91 60 -100
62 -11 3 -27 -9 -47 -38z m147 -59 c28 -19 52 -37 52 -40 0 -3 -11 -18 -24
-35 l-24 -30 -72 50 c-39 27 -73 52 -75 55 -2 3 6 20 17 38 23 37 7 42 126
-38z m261 -44 c9 -10 9 -16 1 -21 -13 -8 -42 14 -34 26 8 13 20 11 33 -5z
m-36 -51 c20 -14 37 -33 37 -42 0 -19 -87 -143 -101 -143 -16 0 -99 60 -99 72
0 21 91 138 108 138 10 0 34 -11 55 -25z m-177 -61 c-11 -18 -22 -31 -24 -29
-2 2 4 15 13 29 10 14 13 26 7 26 -6 0 -14 -4 -17 -10 -8 -12 -42 -13 -49 -1
-3 4 5 6 18 4 13 -3 27 0 30 5 4 6 15 10 25 9 18 -1 17 -3 -3 -33z m-89 10
c-3 -3 -12 -4 -19 -1 -8 3 -5 6 6 6 11 1 17 -2 13 -5z m379 -25 c19 -11 31
-26 28 -31 -5 -7 -12 -4 -20 7 -13 18 -15 18 -38 -4 -13 -12 -26 -18 -30 -13
-5 9 14 62 23 62 2 0 19 -9 37 -21z m-463 -1 c-34 -16 -28 -33 17 -51 45 -17
51 -38 24 -88 -16 -32 -12 -65 6 -54 6 4 9 1 8 -7 -2 -7 2 -12 8 -11 14 3 15
-75 1 -84 -6 -3 -7 -1 -4 4 4 7 -10 9 -41 6 -60 -6 -75 -11 -67 -22 5 -10 -12
-26 -29 -26 -5 0 -11 -6 -14 -14 -3 -9 0 -11 8 -6 9 5 11 4 6 -4 -4 -6 -11 -9
-15 -6 -12 7 -43 -30 -34 -40 5 -4 -2 -3 -14 4 -28 14 -66 14 -81 -1 -20 -20
-14 -66 11 -79 28 -15 37 -28 37 -56 0 -16 6 -23 21 -23 11 0 18 4 15 8 -7 12
74 -1 100 -16 12 -6 25 -8 29 -4 3 4 5 0 3 -8 -2 -9 3 -14 12 -12 8 2 12 0 8
-3 -11 -11 11 -47 24 -39 6 4 8 3 5 -3 -9 -15 17 -35 47 -37 13 0 22 -4 20 -8
-2 -4 0 -9 6 -13 25 -16 3 -91 -39 -129 -11 -10 -18 -22 -16 -26 3 -4 -3 -14
-13 -21 -16 -13 -16 -12 -3 6 13 17 12 17 -9 -2 -13 -12 -24 -30 -25 -40 0
-10 -3 -18 -6 -18 -15 0 -39 -30 -35 -42 3 -8 1 -11 -4 -8 -6 4 -10 -7 -10
-24 0 -23 7 -34 28 -45 35 -19 21 -20 -23 -2 -62 26 -172 117 -218 180 -11 16
15 -6 59 -50 l79 -79 3 87 c3 85 -9 135 -28 123 -5 -3 -12 0 -16 6 -4 8 -3 9
4 5 7 -4 12 -3 12 2 0 12 -35 43 -41 37 -3 -2 -5 22 -5 54 1 33 4 57 8 55 9
-6 16 18 10 34 -2 6 -8 12 -14 12 -5 0 -6 -6 -2 -12 4 -8 3 -10 -2 -5 -5 5 -9
14 -9 20 0 7 -5 12 -12 12 -6 0 -15 4 -20 9 -5 6 -2 6 7 1 13 -8 13 -7 1 9 -8
9 -20 15 -27 12 -8 -3 -13 0 -11 7 1 7 -6 11 -15 11 -10 -1 -17 1 -16 5 1 3
-10 30 -25 60 -18 38 -26 48 -29 35 -3 -11 -3 4 0 31 11 123 141 293 275 360
38 19 75 35 81 34 6 0 1 -5 -11 -11z m514 -43 c0 -8 -4 -12 -9 -9 -5 3 -6 10
-3 15 9 13 12 11 12 -6z m28 -17 c0 -6 6 -13 14 -16 9 -3 11 0 6 9 -17 26 54
-32 95 -79 55 -62 96 -133 119 -208 23 -71 38 -204 24 -204 -5 0 -30 13 -56
30 -50 31 -58 26 -30 -20 13 -23 14 -32 4 -43 -11 -14 -74 -30 -66 -17 6 9
-50 62 -57 54 -3 -3 -6 1 -5 8 0 7 -1 34 -1 60 -2 47 -2 48 -42 54 -21 4 -47
15 -56 25 -9 10 -20 16 -24 14 -4 -3 -14 3 -21 12 -10 12 -10 14 -1 9 6 -4 12
-3 12 3 0 16 -46 24 -68 12 -24 -13 -62 -15 -63 -3 -5 43 -3 60 6 59 5 -1 9 6
9 15 -1 10 3 16 10 15 6 -1 10 6 10 15 -1 10 2 16 6 13 4 -2 15 4 25 15 10 11
25 20 33 20 9 0 -2 15 -26 36 -23 19 -42 41 -42 47 0 6 7 1 16 -11 19 -27 175
-132 196 -132 19 0 78 76 78 99 -1 19 -25 53 -37 52 -4 -1 -8 4 -8 11 0 6 -6
13 -14 16 -9 3 -11 0 -6 -9 5 -7 -5 -3 -22 9 -16 11 -30 28 -30 36 0 9 3 13 6
10 3 -3 6 -11 6 -16z m-390 2 c-3 -5 -13 -10 -21 -10 -8 0 -27 -12 -41 -27
-23 -25 -24 -25 -14 -5 7 13 27 30 44 37 39 17 40 17 32 5z m392 -63 l73 -49
-22 -32 c-12 -17 -23 -33 -24 -35 -3 -3 -152 98 -159 108 -7 13 37 71 48 64 7
-3 45 -29 84 -56z m-166 21 c-10 -11 -11 -9 -6 7 4 12 -6 5 -25 -17 -18 -21
-35 -38 -40 -38 -4 0 9 18 28 40 24 26 39 37 46 30 7 -7 6 -14 -3 -22z m-154
-20 c23 -22 32 -78 13 -78 -6 0 -36 19 -67 41 -41 31 -52 44 -42 50 25 16 72
9 96 -13z m-94 -79 c-4 -21 -1 -28 13 -32 17 -5 16 -6 -1 -4 -15 2 -20 10 -19
32 0 19 -9 37 -25 53 l-26 23 32 -22 c26 -18 31 -27 26 -50z m82 -29 c39 -26
25 -26 -17 0 -18 11 -28 20 -23 20 6 0 24 -9 40 -20z m60 -10 c-3 -5 -12 -10
-18 -10 -7 0 -6 4 3 10 19 12 23 12 15 0z m119 -139 c3 -5 -12 -11 -34 -13
-42 -4 -42 7 0 15 14 2 26 5 27 6 1 0 4 -3 7 -8z m25 -38 c14 -10 30 -16 34
-15 5 1 6 -2 2 -7 -8 -14 33 -34 61 -28 13 2 22 1 19 -3 -2 -3 5 -14 15 -23
13 -11 20 -12 23 -4 2 7 4 -2 4 -20 0 -56 31 -120 64 -132 16 -5 29 -15 29
-22 0 -6 -20 -30 -44 -53 -30 -28 -46 -52 -50 -77 -4 -20 -16 -45 -27 -55 -23
-21 -51 -69 -44 -76 3 -3 -1 -5 -7 -5 -7 -1 -28 -7 -45 -14 -28 -11 -35 -11
-48 1 -23 23 -36 112 -23 148 9 23 9 40 -1 74 -7 23 -15 49 -17 56 -2 6 -17
12 -33 12 -73 0 -114 49 -109 129 2 27 6 47 10 45 8 -5 27 26 25 41 -1 5 7 10
18 10 11 0 21 6 21 13 1 6 2 13 3 15 1 1 22 3 47 5 32 2 55 -3 73 -15z m-772
-165 c-2 -24 -4 -5 -4 42 0 47 2 66 4 43 2 -24 2 -62 0 -85z m1150 -35 c-3
-10 -5 -2 -5 17 0 19 2 27 5 18 2 -10 2 -26 0 -35z m-1140 -45 c-3 -7 -5 -2
-5 12 0 14 2 19 5 13 2 -7 2 -19 0 -25z m1128 -18 c-9 -41 -17 -33 -9 9 4 17
9 30 11 27 3 -2 2 -19 -2 -36z m-1106 -45 c0 -5 -4 -3 -9 5 -5 8 -9 22 -9 30
0 16 17 -16 18 -35z m1082 -22 c-12 -20 -14 -14 -5 12 4 9 9 14 11 11 3 -2 0
-13 -6 -23z m-1052 -40 c12 -24 19 -43 16 -43 -5 0 -45 75 -45 86 0 11 6 2 29
-43z m946 -45 c-4 -13 -7 -31 -8 -40 -1 -9 -4 -15 -8 -13 -3 3 -14 -4 -24 -15
-10 -11 -25 -20 -33 -20 -24 0 -5 52 30 83 39 33 53 34 43 5z m58 -9 c-10 -17
-26 -38 -37 -47 -10 -9 -4 4 15 31 37 53 49 62 22 16z m-53 -72 c0 -2 -10 -12
-22 -23 l-23 -19 19 23 c18 21 26 27 26 19z m-50 -40 c0 -2 -10 -12 -22 -23
l-23 -19 19 23 c18 21 26 27 26 19z m-50 -42 c0 -2 -10 -9 -22 -15 -22 -11
-22 -10 -4 4 21 17 26 19 26 11z m-64 -40 c-11 -8 -25 -15 -30 -15 -6 1 0 7
14 15 32 19 40 18 16 0z m-71 -30 c-16 -8 -37 -14 -45 -14 -8 0 1 7 20 14 46
18 64 17 25 0z m-345 -10 c52 -14 53 -15 11 -10 -24 3 -51 10 -60 15 -21 12
-16 12 49 -5z m273 -12 c-7 -2 -19 -2 -25 0 -7 3 -2 5 12 5 14 0 19 -2 13 -5z
m-80 -10 c-23 -2 -64 -2 -90 0 -26 2 -7 3 42 3 50 0 71 -1 48 -3z"/>
<path d="M1460 2085 c-20 -24 -6 -28 15 -5 10 11 13 20 8 20 -6 0 -16 -7 -23
-15z"/>
<path d="M970 1779 c0 -5 5 -7 10 -4 6 3 10 8 10 11 0 2 -4 4 -10 4 -5 0 -10
-5 -10 -11z"/>
<path d="M820 780 l0 -140 30 0 30 0 0 70 c0 56 3 71 18 79 11 6 24 6 35 0 14
-8 17 -24 17 -79 l0 -70 30 0 30 0 0 80 c0 67 -3 83 -20 100 -21 21 -84 28
-95 10 -14 -22 -20 -7 -17 40 4 50 4 50 -27 50 l-31 0 0 -140z"/>
<path d="M400 903 c0 -5 17 -64 38 -133 37 -123 38 -125 69 -128 l31 -3 29 93
29 93 25 -90 26 -90 33 0 33 0 38 125 c21 69 38 128 39 133 0 4 -13 7 -30 7
-32 0 -31 2 -61 -125 -6 -27 -15 -54 -19 -58 -4 -4 -18 34 -31 85 -23 91 -25
93 -54 93 -28 0 -30 -3 -55 -87 -14 -48 -28 -89 -31 -92 -3 -3 -15 37 -28 89
-22 93 -23 95 -52 95 -16 0 -29 -3 -29 -7z"/>
<path d="M1420 895 c-10 -12 -10 -19 -2 -27 8 -8 8 -17 1 -30 -16 -30 -2 -34
26 -8 17 16 25 33 23 50 -4 29 -29 38 -48 15z"/>
<path d="M1720 805 c0 -104 1 -107 29 -136 25 -25 37 -29 81 -29 44 0 56 4 81
29 28 29 29 32 29 136 l0 106 -27 -3 -28 -3 -3 -98 c-3 -91 -4 -98 -27 -113
-23 -15 -27 -15 -50 0 -23 15 -24 22 -27 113 l-3 98 -27 3 -28 3 0 -106z"/>
<path d="M1270 860 c0 -19 -5 -29 -12 -27 -7 1 -13 -7 -13 -18 0 -11 6 -19 13
-17 8 1 12 -14 12 -50 0 -75 17 -102 63 -106 31 -3 37 0 37 16 0 11 -9 22 -20
25 -17 4 -20 14 -20 62 0 52 2 57 20 52 16 -4 20 0 20 19 0 17 -6 24 -20 24
-15 0 -20 7 -20 25 0 21 -5 25 -30 25 -27 0 -30 -3 -30 -30z"/>
<path d="M1072 824 c-12 -8 -22 -21 -22 -28 0 -19 37 -26 51 -10 16 20 47 17
58 -5 14 -25 5 -31 -45 -31 -50 0 -74 -19 -74 -59 0 -48 51 -72 100 -47 17 8
30 10 30 5 0 -5 11 -9 25 -9 24 0 25 2 25 75 0 67 -3 79 -25 100 -29 29 -88
34 -123 9z m98 -111 c0 -12 -33 -43 -45 -43 -18 0 -38 27 -30 40 7 11 75 14
75 3z"/>
<path d="M1487 822 c-20 -22 -22 -65 -4 -80 7 -6 31 -17 53 -24 40 -14 47 -26
20 -43 -10 -6 -20 -4 -34 8 -19 18 -62 23 -62 8 0 -5 8 -19 18 -31 25 -31 109
-31 134 0 35 43 15 80 -52 97 -43 11 -55 43 -16 43 14 0 26 -4 26 -10 0 -5 11
-10 25 -10 31 0 33 23 3 44 -31 22 -91 20 -111 -2z"/>
<path d="M1980 700 l0 -140 25 0 c22 0 25 4 26 38 1 20 1 41 0 45 -1 5 9 5 21
1 39 -13 70 -7 97 20 21 22 26 36 26 77 0 43 -4 54 -28 75 -30 26 -75 31 -96
12 -11 -10 -14 -10 -18 0 -3 6 -16 12 -29 12 l-24 0 0 -140z m122 83 c20 -18
24 -73 6 -91 -18 -18 -56 -14 -68 7 -16 30 -12 59 10 81 24 24 28 25 52 3z"/>
<path d="M1492 418 l3 -143 25 0 c24 0 25 3 30 75 5 69 7 75 28 78 40 6 52
-14 52 -89 0 -67 1 -69 25 -69 25 0 25 1 25 85 0 72 -3 88 -20 105 -22 22 -79
27 -98 8 -9 -9 -12 0 -12 40 0 51 0 52 -30 52 l-31 0 3 -142z"/>
<path d="M1753 550 c-21 -9 -43 -39 -43 -59 0 -16 46 -13 60 4 7 8 23 15 35
15 42 0 42 -46 0 -74 -12 -8 -25 -26 -27 -40 -5 -23 -2 -26 23 -26 16 0 29 5
29 12 0 7 14 27 32 45 34 35 41 84 15 111 -18 17 -94 25 -124 12z"/>
<path d="M682 413 l3 -138 93 -3 92 -3 0 31 0 30 -66 0 -65 0 3 28 c3 25 7 27
55 30 35 2 53 8 57 18 10 27 -3 34 -60 34 -53 0 -54 0 -54 30 l0 30 65 0 c63
0 65 1 65 25 0 25 0 25 -95 25 l-96 0 3 -137z"/>
<path d="M1340 511 c0 -21 -5 -31 -15 -31 -8 0 -15 -9 -15 -19 0 -10 7 -21 15
-25 11 -4 15 -21 15 -64 0 -73 14 -94 66 -96 33 -1 39 2 42 22 3 18 -1 22 -22
22 -25 0 -26 2 -26 60 0 57 1 60 25 60 18 0 25 5 25 20 0 15 -7 20 -24 20 -19
0 -25 6 -28 28 -2 21 -9 28 -30 30 -25 3 -28 0 -28 -27z"/>
<path d="M949 462 c-14 -12 -20 -25 -16 -35 8 -21 43 -22 51 -2 7 19 40 19 56
0 19 -22 3 -35 -45 -35 -54 0 -77 -20 -73 -63 4 -44 45 -66 90 -49 21 8 34 9
36 2 2 -5 15 -10 28 -10 23 0 24 2 24 85 0 72 -3 88 -20 105 -26 26 -99 27
-131 2z m101 -111 c0 -14 -29 -41 -44 -41 -18 0 -39 27 -31 40 8 12 75 14 75
1z"/>
<path d="M1152 378 l3 -103 28 -3 27 -3 0 71 c0 71 1 72 30 83 21 8 30 18 30
34 0 27 -16 30 -42 6 -17 -15 -18 -15 -18 0 0 12 -9 17 -30 17 l-31 0 3 -102z"/>
<path d="M1783 333 c-18 -7 -16 -50 2 -57 24 -9 45 4 45 29 0 18 -22 40 -33
34 -1 0 -8 -3 -14 -6z"/>
</g>
</svg>
